<svg width="102" height="102" viewBox="0 0 102 102" fill="none" xmlns="http://www.w3.org/2000/svg">
<path d="M50.875 101.75C78.9725 101.75 101.75 78.9725 101.75 50.875C101.75 22.7775 78.9725 0 50.875 0C22.7775 0 0 22.7775 0 50.875C0 78.9725 22.7775 101.75 50.875 101.75Z" fill="#8FD2FF"/>
<path fill-rule="evenodd" clip-rule="evenodd" d="M8.25032 63.5C8.10322 63.3528 7.96326 63.1986 7.83094 63.038C6.84674 58.3682 6.62064 53.5704 7.16132 48.8287C9.89207 40.9624 16.6488 33.25 26.1253 33.25C37.1253 33.25 48.5832 39.6671 60.5003 52.5L58.1436 97.2769C55.7414 97.6757 53.3104 97.8757 50.8753 97.875C31.6116 97.875 15.2367 85.4945 9.27882 68.2547C9.67069 66.1634 9.32832 64.578 8.25032 63.5Z" fill="url(#paint0_linear_2209_22)"/>
<path fill-rule="evenodd" clip-rule="evenodd" d="M6.92725 51.7039C10.4926 60.4846 21.7247 70.375 31.875 70.375C53.875 70.375 55.75 32.875 76.375 32.875C83.2088 32.875 89.1963 36.8896 93.0875 41.4189C94.2769 45.4639 94.8789 49.6588 94.875 53.875C94.875 78.1754 75.1754 97.875 50.875 97.875C26.5746 97.875 6.875 78.1754 6.875 53.875C6.875 53.1463 6.89288 52.423 6.92725 51.7039Z" fill="url(#paint1_linear_2209_22)"/>
<defs>
<linearGradient id="paint0_linear_2209_22" x1="2688.14" y1="33.25" x2="2688.14" y2="6218.06" gradientUnits="userSpaceOnUse">
<stop stop-color="#1026F6"/>
<stop offset="1" stop-color="#000B76"/>
</linearGradient>
<linearGradient id="paint1_linear_2209_22" x1="4406.88" y1="34.625" x2="4406.88" y2="10484.6" gradientUnits="userSpaceOnUse">
<stop stop-color="#0099FF"/>
<stop offset="1" stop-color="#0019FF"/>
</linearGradient>
</defs>
</svg>
